<svg xmlns="http://www.w3.org/2000/svg" width="180" height="180" viewBox="0 0 180 180">
  <defs>
    <linearGradient id="mindpulse-gradient-apple" x1="0%" y1="0%" x2="100%" y2="100%">
      <stop offset="0%" stop-color="#6366f1"/>
      <stop offset="50%" stop-color="#8b5cf6"/>
      <stop offset="100%" stop-color="#ec4899"/>
    </linearGradient>
  </defs>
  
  <!-- Background with rounded corners for iOS -->
  <rect x="0" y="0" width="180" height="180" rx="40" ry="40" fill="url(#mindpulse-gradient-apple)"/>
  
  <!-- Brain/Mind icon (larger for touch icon) -->
  <path d="M67.5 45c-8.4 0-14 5.6-14 14 0 2.8 1.1 5.6 2.8 7.3-4.5 1.1-8.4 5-8.4 9.5 0 4.5 2.8 7.8 6.7 9.5-1.1 1.7-1.1 3.4-1.1 5.6 0 6.2 5 11.2 11.2 11.2h2.8c1.7 3.4 5 5.6 8.4 5.6h11.2c4.5 0 8.4-3.9 8.4-8.4 0-1.7-0.6-2.8-1.1-3.9 3.9-1.7 6.7-5.6 6.7-10.1 0-3.4-1.7-6.2-3.9-7.8 2.2-2.2 3.9-5.6 3.9-9 0-6.7-5.6-12.3-12.3-12.3-2.2 0-4.5 0.6-6.2 1.7-2.2-4.5-6.7-7.3-11.8-7.3z" fill="#ffffff" opacity="0.9"/>
  
  <!-- Pulse/Heart rate line (larger) -->
  <path d="M33.8 112.5 L45 112.5 L50.6 101.3 L56.3 123.8 L61.9 90 L67.5 135 L73.1 101.3 L78.8 112.5 L146.3 112.5" 
        stroke="#ffffff" 
        stroke-width="6" 
        fill="none" 
        stroke-linecap="round" 
        stroke-linejoin="round"
        opacity="0.8"/>
  
  <!-- Sparkle/wellness indicators (larger) -->
  <circle cx="123.8" cy="56.3" r="8.4" fill="#ffffff" opacity="0.7"/>
  <circle cx="135 cy="67.5" r="5.6" fill="#ffffff" opacity="0.5"/>
  <circle cx="112.5" cy="45" r="4.5" fill="#ffffff" opacity="0.6"/>
  
  <!-- Additional wellness elements -->
  <path d="M45 67.5 Q56.3 56.3 67.5 67.5 Q78.8 56.3 90 67.5" 
        stroke="#ffffff" 
        stroke-width="3" 
        fill="none" 
        stroke-linecap="round"
        opacity="0.4"/>
</svg>
