<svg xmlns="http://www.w3.org/2000/svg" width="16" height="16" viewBox="0 0 16 16">
  <defs>
    <linearGradient id="mindpulse-gradient-16" x1="0%" y1="0%" x2="100%" y2="100%">
      <stop offset="0%" stop-color="#6366f1"/>
      <stop offset="50%" stop-color="#8b5cf6"/>
      <stop offset="100%" stop-color="#ec4899"/>
    </linearGradient>
  </defs>
  
  <!-- Background circle -->
  <circle cx="8" cy="8" r="7.5" fill="url(#mindpulse-gradient-16)" stroke="#ffffff" stroke-width="0.5"/>
  
  <!-- Brain/Mind icon (simplified for small size) -->
  <path d="M6 4c-0.8 0-1.3 0.5-1.3 1.3 0 0.3 0.1 0.5 0.3 0.7-0.4 0.1-0.8 0.5-0.8 0.9 0 0.4 0.3 0.7 0.6 0.9-0.1 0.2-0.1 0.3-0.1 0.5 0 0.6 0.5 1 1 1h0.3c0.2 0.3 0.5 0.5 0.8 0.5h1c0.4 0 0.8-0.4 0.8-0.8 0-0.2-0.1-0.3-0.1-0.4 0.4-0.2 0.6-0.5 0.6-0.9 0-0.3-0.2-0.6-0.4-0.7 0.2-0.2 0.4-0.5 0.4-0.8 0-0.6-0.5-1.1-1.1-1.1-0.2 0-0.4 0.1-0.6 0.2-0.2-0.4-0.6-0.7-1.1-0.7z" fill="#ffffff" opacity="0.9"/>
  
  <!-- Pulse line (simplified) -->
  <path d="M3 10 L4 10 L4.5 9 L5 11 L5.5 8 L6 12 L6.5 9 L7 10 L13 10" 
        stroke="#ffffff" 
        stroke-width="1" 
        fill="none" 
        stroke-linecap="round" 
        opacity="0.8"/>
  
  <!-- Small sparkle -->
  <circle cx="11" cy="5" r="0.8" fill="#ffffff" opacity="0.7"/>
</svg>
