<svg xmlns="http://www.w3.org/2000/svg" width="32" height="32" viewBox="0 0 32 32">
  <defs>
    <linearGradient id="mindpulse-gradient" x1="0%" y1="0%" x2="100%" y2="100%">
      <stop offset="0%" stop-color="#6366f1"/>
      <stop offset="50%" stop-color="#8b5cf6"/>
      <stop offset="100%" stop-color="#ec4899"/>
    </linearGradient>
  </defs>

  <!-- Background circle -->
  <circle cx="16" cy="16" r="15" fill="url(#mindpulse-gradient)" stroke="#ffffff" stroke-width="1"/>

  <!-- Brain/Mind icon -->
  <path d="M12 8c-1.5 0-2.5 1-2.5 2.5 0 0.5 0.2 1 0.5 1.3-0.8 0.2-1.5 0.9-1.5 1.7 0 0.8 0.5 1.4 1.2 1.7-0.2 0.3-0.2 0.6-0.2 1 0 1.1 0.9 2 2 2h0.5c0.3 0.6 0.9 1 1.5 1h2c0.8 0 1.5-0.7 1.5-1.5 0-0.3-0.1-0.5-0.2-0.7 0.7-0.3 1.2-1 1.2-1.8 0-0.6-0.3-1.1-0.7-1.4 0.4-0.4 0.7-1 0.7-1.6 0-1.2-1-2.2-2.2-2.2-0.4 0-0.8 0.1-1.1 0.3-0.4-0.8-1.2-1.3-2.1-1.3z" fill="#ffffff" opacity="0.9"/>

  <!-- Pulse/Heart rate line -->
  <path d="M6 20 L8 20 L9 18 L10 22 L11 16 L12 24 L13 18 L14 20 L26 20"
        stroke="#ffffff"
        stroke-width="2"
        fill="none"
        stroke-linecap="round"
        stroke-linejoin="round"
        opacity="0.8"/>

  <!-- Small sparkle/wellness indicator -->
  <circle cx="22" cy="10" r="1.5" fill="#ffffff" opacity="0.7"/>
  <circle cx="24" cy="12" r="1" fill="#ffffff" opacity="0.5"/>
</svg>